<svg width="69" height="25" viewBox="0 0 69 25" fill="none" xmlns="http://www.w3.org/2000/svg">
<path d="M0.563402 4.11126C0.402227 3.80977 0.339341 3.49107 0.378471 3.17407C0.4176 2.85706 0.55795 2.54821 0.791198 2.26581C1.02445 1.98342 1.34584 1.73324 1.73633 1.5301C2.12682 1.32696 2.57846 1.175 3.06446 1.08323C3.55045 0.991457 4.06092 0.961745 4.5656 0.995852C5.07027 1.02996 5.55887 1.12719 6.00244 1.28178C6.446 1.43638 6.83549 1.64518 7.14781 1.89582C7.46014 2.14646 7.68894 2.43383 7.82065 2.74088C15.7301 19.3326 53.2524 19.335 61.1694 2.75039C61.3113 2.45128 61.5459 2.17262 61.8597 1.9303C62.1736 1.68798 62.5605 1.48675 62.9985 1.33811C63.4365 1.18947 63.917 1.09632 64.4125 1.06398C64.9079 1.03164 65.4087 1.06075 65.8862 1.14963C66.3638 1.23852 66.8086 1.38545 67.1955 1.58204C67.5824 1.77862 67.9036 2.02101 68.1409 2.29536C68.3782 2.56971 68.5269 2.87065 68.5786 3.181C68.6302 3.49135 68.5837 3.80503 68.4418 4.10413C67.0623 7.0757 64.7224 9.83797 61.5675 12.2195L66.4019 15.25C67.0926 15.6979 67.4748 16.2979 67.4661 16.9206C67.4575 17.5433 67.0587 18.139 66.3557 18.5793C65.6527 19.0197 64.7017 19.2695 63.7076 19.2749C62.7134 19.2803 61.7556 19.0409 61.0405 18.6083L56.0696 15.4946C53.3868 16.7617 50.4234 17.777 47.2729 18.5085L48.6266 21.6791C48.771 21.9833 48.8166 22.3024 48.7608 22.6178C48.705 22.9331 48.5489 23.2383 48.3017 23.5152C48.0545 23.7922 47.7212 24.0353 47.3216 24.2302C46.9219 24.4251 46.4639 24.5679 45.9746 24.6501C45.4854 24.7323 44.9748 24.7523 44.473 24.7088C43.9713 24.6654 43.4885 24.5594 43.0532 24.3971C42.6179 24.2349 42.2389 24.0196 41.9386 23.7641C41.6383 23.5086 41.4228 23.2179 41.3049 22.9094L39.9247 19.6865C36.334 20.019 32.6637 20.019 29.0729 19.6865L27.6928 22.9094C27.5748 23.2179 27.3593 23.5086 27.059 23.7641C26.7587 24.0196 26.3798 24.2349 25.9445 24.3971C25.5092 24.5594 25.0264 24.6654 24.5246 24.7088C24.0228 24.7523 23.5123 24.7323 23.023 24.6501C22.5338 24.5679 22.0758 24.4251 21.6761 24.2302C21.2764 24.0353 20.9431 23.7922 20.6959 23.5152C20.4487 23.2383 20.2926 22.9331 20.2368 22.6178C20.181 22.3024 20.2267 21.9833 20.3711 21.6791L21.7247 18.5085C18.574 17.7762 15.6106 16.7601 12.928 15.4923L7.96094 18.6083C7.24998 19.0542 6.2853 19.305 5.27912 19.3055C4.27295 19.3059 3.30771 19.056 2.59574 18.6106C1.88376 18.1653 1.48338 17.5611 1.48267 16.9308C1.48196 16.3006 1.88098 15.696 2.59194 15.25L7.42632 12.2219C4.45365 9.99889 2.08007 7.29613 0.555819 4.11363L0.563402 4.11126Z" fill="#6F7170"/>
</svg>
