<svg width="91" height="57" viewBox="0 0 91 57" fill="none" xmlns="http://www.w3.org/2000/svg">
<path d="M44.5102 40.5C48.4442 40.5 51.7882 39.4062 54.542 37.2188C57.2958 35.0312 58.6727 32.375 58.6727 29.25C58.6727 26.125 57.2958 23.4688 54.542 21.2812C51.7882 19.0938 48.4442 18 44.5102 18C40.5761 18 37.2322 19.0938 34.4784 21.2812C31.7246 23.4688 30.3476 26.125 30.3476 29.25C30.3476 32.375 31.7246 35.0312 34.4784 37.2188C37.2322 39.4062 40.5761 40.5 44.5102 40.5ZM44.5102 36C42.1498 36 40.1434 35.3438 38.4911 34.0312C36.8388 32.7188 36.0127 31.125 36.0127 29.25C36.0127 27.375 36.8388 25.7812 38.4911 24.4688C40.1434 23.1562 42.1498 22.5 44.5102 22.5C46.8706 22.5 48.877 23.1562 50.5293 24.4688C52.1816 25.7812 53.0077 27.375 53.0077 29.25C53.0077 31.125 52.1816 32.7188 50.5293 34.0312C48.877 35.3438 46.8706 36 44.5102 36ZM44.5102 48C36.8519 48 29.8756 46.3021 23.5811 42.9062C17.2866 39.5104 12.7231 34.9583 9.89062 29.25C12.7231 23.5417 17.2866 18.9896 23.5811 15.5938C29.8756 12.1979 36.8519 10.5 44.5102 10.5C52.1685 10.5 59.1448 12.1979 65.4393 15.5938C71.7338 18.9896 76.2972 23.5417 79.1298 29.25C76.2972 34.9583 71.7338 39.5104 65.4393 42.9062C59.1448 46.3021 52.1685 48 44.5102 48ZM44.5102 43C50.4375 43 55.8796 41.7604 60.8365 39.2812C65.7934 36.8021 69.5831 33.4583 72.2058 29.25C69.5831 25.0417 65.7934 21.6979 60.8365 19.2188C55.8796 16.7396 50.4375 15.5 44.5102 15.5C38.5829 15.5 33.1408 16.7396 28.1839 19.2188C23.227 21.6979 19.4372 25.0417 16.8145 29.25C19.4372 33.4583 23.227 36.8021 28.1839 39.2812C33.1408 41.7604 38.5829 43 44.5102 43Z" fill="#6F7170"/>
</svg>
